<?xml version="1.0"?>
<svg width="480" height="480" xmlns="http://www.w3.org/2000/svg" xmlns:svg="http://www.w3.org/2000/svg">
 <g class="layer">
  <title>Layer 1</title>
  <rect fill="#000000" height="72" id="svg_2" rx="16" ry="16" stroke="#000000" stroke-width="0" transform="matrix(1 0 0 1 0 0)" width="72" x="20" y="20"/>
  <rect fill="#000000" height="72" id="svg_3" rx="16" ry="16" stroke="#000000" stroke-width="0" transform="matrix(1 0 0 1 0 0)" width="72" x="20" y="112"/>
  <rect fill="#000000" height="72" id="svg_4" rx="16" ry="16" stroke="#000000" stroke-width="0" transform="matrix(1 0 0 1 0 0)" width="72" x="20" y="204"/>
  <rect fill="#000000" height="72" id="svg_5" rx="16" ry="16" stroke="#000000" stroke-width="0" transform="matrix(1 0 0 1 0 0)" width="72" x="20" y="296"/>
  <rect fill="#000000" height="72" id="svg_6" rx="16" ry="16" stroke="#000000" stroke-width="0" transform="matrix(1 0 0 1 0 0)" width="72" x="20" y="388"/>
  <rect fill="#000000" height="72" id="svg_7" rx="16" ry="16" stroke="#000000" stroke-width="0" width="260" x="112" y="20"/>
  <rect fill="#000000" height="72" id="svg_8" rx="16" ry="16" stroke="#000000" stroke-width="0" transform="matrix(1 0 0 1 0 0)" width="348" x="112" y="112"/>
  <rect fill="#000000" height="72" id="svg_9" rx="16" ry="16" stroke="#000000" stroke-width="0" transform="matrix(1 0 0 1 0 0)" width="120" x="112" y="204"/>
  <rect fill="#000000" height="72" id="svg_10" rx="16" ry="16" stroke="#000000" stroke-width="0" transform="matrix(1 0 0 1 0 0)" width="260" x="112" y="296"/>
  <rect fill="#000000" height="72" id="svg_11" rx="16" ry="16" stroke="#000000" stroke-width="0" width="200" x="112" y="388"/>
 </g>
</svg>