<?xml version="1.0"?>
<svg width="479.99999999999994" height="479.99999999999994" xmlns="http://www.w3.org/2000/svg" xmlns:svg="http://www.w3.org/2000/svg">
 <g class="layer">
  <title>Layer 1</title>
  <rect fill="#000000" height="72" id="svg_3" rx="16" ry="16" stroke="#000000" stroke-width="0" width="120" x="20" y="112"/>
  <rect fill="#000000" height="72" id="svg_4" rx="16" ry="16" stroke="#000000" stroke-width="0" transform="matrix(1 0 0 1 0 0)" width="72" x="20" y="204"/>
  <rect fill="#000000" height="72" id="svg_8" rx="16" ry="16" stroke="#000000" stroke-width="0" width="301.97" x="157.85" y="112"/>
  <rect fill="#000000" height="72" id="svg_9" rx="16" ry="16" stroke="#000000" stroke-width="0" transform="matrix(1 0 0 1 0 0)" width="161.53" x="157.09" y="204"/>
  <rect fill="#000000" height="72" id="svg_10" rx="16" ry="16" stroke="#000000" stroke-width="0" width="84.58" x="156.81" y="296"/>
  <rect fill="#000000" height="72" id="svg_15" rx="16" ry="16" stroke="#000000" stroke-width="0" width="440" x="20" y="20"/>
  <rect fill="#000000" height="72" id="svg_16" rx="16" ry="16" stroke="#000000" stroke-width="0" transform="matrix(1 0 0 1 0 0)" width="120" x="338.81" y="203.49"/>
  <rect fill="#000000" height="72" id="svg_17" rx="16" ry="16" stroke="#000000" stroke-width="0" width="60" x="258.22" y="295.86"/>
  <rect fill="#000000" height="72" id="svg_18" rx="16" ry="16" stroke="#000000" stroke-width="0" width="60" x="156.95" y="387.39"/>
 </g>
</svg>